<svg version="1.1" viewBox="0 0 191.57 144.28" xmlns="http://www.w3.org/2000/svg"><g transform="translate(-14.159 -13.829)"><path d="m30.67 156.38c-15.957-4.9024-16.809-8.6592-16.455-72.531 0.42464-76.642-8.8953-69.846 95.785-69.846 105.06 0 95.5-7.2191 95.5 72.078 0 79.138 9.6823 71.893-96 71.828-62.491-0.0387-74.751-0.27658-78.83-1.5297zm161.99-7.9479c7.4847-5.9822 7.3391-4.9776 7.3409-50.679 8.5e-4 -22.412-0.23501-40.75-0.52414-40.75s-17.502 13.63-38.25 30.288c-55.469 44.535-47.12 44.56-102.8-0.30696-20.121-16.215-36.998-29.631-37.506-29.815-0.55383-0.20009-0.92263 15.905-0.92263 40.29 0 47.533-0.05044 47.279 10.5 52.888 6.6895 3.5568 157.54 1.7745 162.16-1.9159zm-76.828-33.951c2.1958-0.44291 9.5176-5.6388 21.5-15.257 9.9936-8.0222 28.183-22.637 40.42-32.478l22.25-17.892v-7.3599c0-10.973-2.4036-15.584-10.21-19.587-6.4253-3.2951-154.57-2.9062-160.88 0.42234-6.5878 3.4754-8.8703 8.1764-8.8908 18.311l-0.01645 8.1365 40.233 32.327c40.403 32.464 45.175 35.697 50.767 34.398 0.825-0.19174 2.9984-0.65086 4.8298-1.0203z" fill-opacity=".12354"/></g></svg>
