<svg version="1.1" viewBox="0 0 493.7 510.96" xmlns="http://www.w3.org/2000/svg"><g transform="translate(-17.692 -7.204)"><path d="m80.829 517.59c-54.272-7.3814-81.349-69.585-49.555-113.84 4.5366-6.3147 3.4957-6.4474 8.9072 1.1361 18.625 26.101 49.896 39.388 82.784 35.175 5.6361-0.72198 5.6361-0.72198 7.3955 4.629 3.1852 9.6872 13.547 25.99 20.796 32.718 2.5499 2.3668 2.5499 2.3668-0.0243 6.5-14.615 23.466-43.538 37.324-70.303 33.684zm113.11-32.013c-65.627-16.111-74.038-107.54-12.485-135.72 6.6403-3.04 7.6456-2.7332 9.2732 2.8302 9.7569 33.35 47.34 59.194 83.901 57.694 9.9994-0.41023 10.043-0.34194 8.3218 13.078-5.6107 43.75-46.786 72.486-89.011 62.12zm-88.607-58.759c-55.164-3.5109-85.771-65.992-55-112.28 7.5505-11.358 27.001-27.083 28.346-22.918 9.4317 29.218 46.21 57.918 74.22 57.918 1.819 0 1.286 0.93306-3.4633 6.0629-16.018 17.301-23.877 36.489-24.026 58.663-0.0843 12.475-2.044 13.7-20.076 12.553zm150-32.134c-45.339-11.895-68.148-60.169-48.025-101.64 6.8845-14.19 12.338-19.881 16.084-16.786 20.611 17.034 42.279 24.643 65.051 22.845 8.11-0.64048 8.11-0.64048 8.8182 9.0068 1.6456 22.418 9.8653 41.144 24.586 56.012l6.0173 6.0774-4.9183 5.1297c-7.8347 8.1714-18.555 14.48-32.113 18.898-7.3532 2.3959-27.148 2.6538-35.5 0.46266zm115-19.557c-56.415-11.028-78.535-78.858-39.215-120.25 44.914-47.282 124.01-15.946 124.1 49.163 0.0589 45.214-41.064 79.654-84.881 71.088zm-227.5-41.473c-50.604-14.136-71.024-74.244-38.863-114.4 5.8968-7.362 6.041-7.436 9.5983-4.9245 20.125 14.208 52.17 18.075 75.696 9.1328 7.0246-2.6699 7.2257-2.5863 7.993 3.3224 1.2708 9.7865 6.0332 22.671 11.658 31.541 2.8744 4.5325 2.8744 4.5325-0.88839 8.6209-13.273 14.422-20.802 32.766-21.894 53.344-0.59723 11.255-0.59723 11.255-5.6984 12.879-7.9017 2.5146-29.34 2.789-37.601 0.48117zm128.54-49.228c-60.647-8.835-82.641-85.996-35.935-126.07 18.008-15.452 36.343-19.764 64.899-15.261 4 0.63077 4 0.63077 7.7856-7.0498 25.451-51.638 71.907-91.156 145.21-123.53 16.437-7.2585 21.227-7.1335 27.209 0.71015 7.1218 9.3371 2.7576 23.593-8.9189 29.135-53.058 25.181-71.841 36.83-94.606 58.674-24.052 23.08-46.842 59.437-40.513 64.634 7.7533 6.3659 16.867 28.557 17.402 42.372 0.57634 14.875 0.54122 14.99-5.324 17.502-21.797 9.335-39.445 29.033-47.156 52.633-2.1951 6.7178-12.356 8.8314-30.058 6.2526zm-120.04-70.602c-59.262-8.1956-83.627-80.013-41.5-122.32 40.683-40.858 109.67-20.113 121.5 36.537 2.5304 12.114 2.246 13.555-3.657 18.533-17.129 14.444-30.846 38.999-30.846 55.221 0 7.1526-27.74 14.488-45.5 12.032zm294.5-5.3716c-64.107-9.9354-88.343-44.319-60.07-85.219 37.923-54.857 83.538-30.892 122.24 64.221 4.781 11.75 4.968 10.66-2.419 14.103-14.746 6.8745-40.618 9.8601-59.75 6.895z" fill-opacity=".1224"/></g></svg>
