<svg version="1.1" viewBox="0 0 223.82 224.36" xmlns="http://www.w3.org/2000/svg"><g transform="translate(-11.354 -8.5531)"><path d="m113.73 232.48c-22.496-2.0149-45.61-11.653-62.789-26.182-5.2885-4.4729-5.2885-4.4729-16.101 6.1815-12.193 12.016-15.52 13.336-20.656 8.1998-2.461-2.461-4.0211-72.746-1.6892-76.103 3.0107-4.3355 4.0027-4.442 41.368-4.442 35.689 0 35.689 0 38.277 3.0767 4.9 5.8233 3.9706 8.08-8.4111 20.423-12.83 12.79-12.529 11.795-5.2299 17.328 38.574 29.238 94.883 14.483 113.83-29.828 5.0876-11.898 3.333-11 21.487-11 19.517 0 19.307-0.16658 15.504 12.28-15.682 51.328-63.861 84.7-115.59 80.066zm-98.25-131.43c-2.4743-1.4412-2.1943-5.2323 1.1065-14.982 25.76-76.089 114.09-101.75 177.99-51.719 6.3491 4.9711 6.3491 4.9711 17.101-5.6236 12.128-11.951 15.466-13.27 20.596-8.1402 3.8347 3.8347 3.8714 73.787 0.0411 78.24-3.8019 4.42-74.371 4.42-78.173 0-4.9665-5.7739-3.808-8.5839 8.8366-21.435 12.664-12.871 12.695-12.597-2.3815-21.535-37.842-22.435-88.019-5.9124-106.47 35.059-2.3617 5.2439-4.8797 9.9059-5.5956 10.36-1.8762 1.1901-30.962 0.99306-33.052-0.22387z" fill="#fff"/></g></svg>
