<svg version="1.1" viewBox="0 0 799.56 359.32" xmlns="http://www.w3.org/2000/svg"><g transform="translate(-4.1825 -25.848)"><path d="m8.9781 383.3c-2.5104-2.0536-2.3098 1.0927-4.2039-65.943-1.2171-43.077-2.2385-40.355 15.144-40.367 7.6053-6e-3 7.6053-6e-3 15.65-16.256 26.296-53.115 33.146-94.316 33.221-199.8 0.017-23.957 0.33992-32.867 1.2231-33.75 1.8686-1.8686 161.12-1.724 162.67 0.14772 0.80836 0.97401 1.1889 35.705 1.3724 125.25l0.25394 123.9 10.715 0.5c15.633 0.72947 14.215-5.2566 12.701 53.613-1.5625 60.769 0.89189 54.387-20.917 54.387-20.849 0-19.506 1.685-20.363-25.557-0.36231-11.519-0.93673-25.781-1.2765-31.693l-0.61776-10.75h-166.45l-0.63228 14.75c-0.34776 8.1125-0.93082 22.517-1.2957 32.01-0.4387 11.414-1.0936 17.85-1.9334 19-1.987 2.7217-32.044 3.1953-35.27 0.55572zm177.84-212.33v-105.01l-73.5 0.52464-0.63499 41c-1.1193 72.272-10.316 118.81-31.945 161.66-1.606 3.1814-2.9199 6.0222-2.9199 6.3129 0 0.2907 24.525 0.52852 54.5 0.52852h54.5zm580.34 150.01c-18.096-3.7409-28.262-23.672-21.878-42.892 7.3962-22.268 39.627-26.775 52.5-7.3417 16.24 24.518-2.9258 55.959-30.622 50.234zm-473.34-5.9955c-2.7659-2.7659-3.1949-203.85-0.4433-207.78 2.5926-3.7014 40.601-3.4374 43.049 0.29896 1.5076 2.301 1.6139 8.7355 1.2148 73.58-0.43737 71.058-0.43737 71.058 1.9695 66.229 7.0376-14.122 19.494-36.026 35.73-62.83 9.9945-16.5 24.155-39.9 31.469-52 7.3134-12.1 14.163-23.238 15.222-24.75 2.1549-3.0782 48.663-4.4756 51.589-1.55 2.3829 2.3829 1.6615 208.48-0.73426 209.76-3.165 1.6939-39.245 1.357-41.625-0.38862-1.9939-1.4625-2.7883-106.02-1.049-138.08 0.59682-11 0.59682-11-1.5343-7-11.116 20.865-39.32 69.133-75.668 129.5-11.379 18.899-7.5414 17-34.364 17-21.492 0-22.943-0.11683-24.826-2zm230.89 0.36602c-2.2224-2.6775-2.5784-204.66-0.36662-208.04 2.4889-3.7986 43.23-3.1909 45.184 0.67393 0.95143 1.8817 1.2677 11.838 1.2788 40.261l0.0147 37.761 84.5-0.52172 0.26189-38.912c0.17965-26.692 0.61065-39.332 1.3724-40.25 1.7717-2.1348 42.139-1.9222 44.294 0.2333 2.6222 2.6222 2.3711 206.39-0.25731 208.77-2.6705 2.4167-41.193 2.4906-43.6 0.0836-1.3809-1.3809-1.5714-6.8983-1.5714-45.5v-43.929h-85l-0.0147 42.75c-0.0112 32.443-0.31949 43.353-1.2788 45.25-1.6655 3.294-42.192 4.5292-44.818 1.366z" fill-opacity=".12009"/></g></svg>
