<svg version="1.1" viewBox="0 0 224.77 224.04" xmlns="http://www.w3.org/2000/svg"><g transform="translate(-1.456 8.5969)"><path d="m170.76 188.47c-27.043-26.978-27.043-26.978-32.533-23.842-93.185 53.22-185.73-74.742-107.23-148.26 73.531-68.857 189.08 17.078 145.11 107.92-4.0894 8.4486-4.0894 8.4486 23.009 35.561 15.109 15.116 27.099 27.898 27.099 28.887 0 8.1393-18.442 26.711-26.524 26.711-1.1415 0-12.623-10.705-28.935-26.978zm-63.001-44.538c47.827-12.157 62.999-71.623 26.892-105.4-38.623-36.13-102.45-8.0868-102.62 45.084-0.12607 39.831 37.724 69.977 75.731 60.316z" fill="#000" fill-opacity=".2" /></g></svg>
