<svg version="1.1" viewBox="0 0 175.65 164.2" xmlns="http://www.w3.org/2000/svg"><g transform="translate(-30.352 -34.803)"><path d="m30.353 194c0.0223-5 0.0223-5 4.3348-5 4.3125 0 4.3125 0 4.3125-35.806 0-35.806 0-35.806 13.431-45 16.456-11.265 15.569-11.248 15.569-0.29251 0 8.9015 0 8.9015 14-0.54102 14-9.4425 14-9.4425 14 0.0991 0 9.5416 0 9.5416 14-0.0297 14-9.5713 14-9.5713 14 0.0689 0 9.6401 0 9.6401 14 0.0364 14-9.6037 14-9.6037 14-0.0694 0 9.5343 0 9.5343 3.481 9.5343 4.3766 0 3.8492 2.8249 7.0022-37.5 3.9268-50.22 2.4463-44.5 11.517-44.5s7.5901-5.7202 11.517 44.5c3.153 40.325 2.6256 37.5 7.0022 37.5 3.481 0 3.481 0 3.481 36s0 36 5 36 5 0 5 5 0 5-87.835 5c-87.835 0-87.835 0-87.813-5zm36.647-35c0-6 0-6-8-6-11.677 0-12.861 10.657-1.25 11.258 3.7125 0.19241 7.3125 0.43797 8 0.54569 0.88287 0.13834 1.25-1.5664 1.25-5.8041zm27.77 5.0802c0.89804-0.0567 1.1774-1.6173 0.95433-5.3302-0.50956-8.4801-16.724-8.8291-16.724-0.35999 0 6.7591-0.17081 6.6974 15.77 5.6902zm28.032-0.0347c0.93852-0.0328 1.2178-1.5119 1-5.2955-0.46197-8.0241-16.106-8.3506-16.613-0.34675-0.41345 6.5174-1.2078 6.2304 15.613 5.6423zm28.999-5.3368c0.41806-8.04-16.038-8.8763-16.614-0.84433-0.50534 7.0444-0.23699 7.2619 8.5485 6.9294 7.7646-0.29385 7.7646-0.29385 8.0657-6.0851zm25.949 5.7922c1.9941-0.47772 2.25-1.1624 2.25-6.02 0-5.481 0-5.481-8-5.481s-8 0-8 5.4267c0 4.3784 0.33804 5.4891 1.75 5.75 3.6549 0.67526 9.8375 0.84232 12 0.32424zm-110.75-27.448c0-6.0525 0-6.0525-8-6.0525s-8 0-8 5.3333c0 6.6527-0.40867 6.3374 8.5212 6.5738 7.4788 0.19794 7.4788 0.19794 7.4788-5.8546zm28.5-0.13658c0-8.3939-15.816-8.6048-16.3-0.21735-0.30048 5.1986-0.30048 5.1986 5.5 5.5596 11.044 0.68736 10.8 0.80788 10.8-5.3422zm28 0.0841c0-7.8142-15.755-8.911-16.313-1.1356-0.50515 7.0418-0.23756 7.2587 8.548 6.9279 7.7651-0.29238 7.7651-0.29238 7.7651-5.7924zm28.301-0.29127c0.41806-8.04-16.038-8.8763-16.614-0.84433-0.50806 7.0824-0.22837 7.3096 8.557 6.9516 7.756-0.31607 7.756-0.31607 8.0572-6.1073zm27.999 0.04123c0.29991-5.75 0.29991-5.75-7.75-5.75-8.0499 0-8.0499 0-8.0499 5.4267 0 6.2837 0.27862 6.4664 9.5 6.2283 6-0.15494 6-0.15494 6.2999-5.9049z" fill-opacity=".072"/></g></svg>
