<svg version="1.1" viewBox="0 0 117.6 105.75" xmlns="http://www.w3.org/2000/svg"><g transform="translate(-20.474 -16.373)"><path d="m35.095 103.77c9.4135-18.132 10.077-20.28 6.2986-20.38-0.31927-8e-3 -4.8193 8.2656-10 18.387-8.9179 17.422-10.92 20.244-10.92 15.395 0-1.6203 17.958-38.877 19.625-40.716 0.57112-0.63 10.375 4.1392 10.375 5.0471 0 0.43208-2.2016 5.0069-4.8924 10.166-3.378 6.4768-4.7426 10.164-4.4085 11.912 0.40026 2.0938 0.02023 2.6478-2.1985 3.2046-1.5406 0.38668-2.4717 1.1874-2.1874 1.8814 0.27224 0.66447 0.79 1.9401 1.1506 2.8348 0.4788 1.188-0.05387 1.8047-1.9754 2.287-2.2843 0.57333-2.5486 1.0354-2.0058 3.5068 0.55584 2.5307 0.26988 2.9703-2.5779 3.963-6.2945 2.1943-6.1508 1.518 3.7163-17.488zm72.379-0.56161c0-0.24529-2.9636-6.9457-6.5857-14.89-14.664-32.163-14.032-30.043-9.9847-33.444 3.883-3.2626 4.4203-4.925 2.0249-6.2655-1.903-1.065-0.59447-5.2977 2.2826-7.3836 7.729-5.6034 6.5466-15.068-2.3754-19.015-11.589-5.1264-23.544 4.981-17.916 15.148 0.93509 1.6893 1.0724 3.0485 0.42938 4.25-1.4013 2.6183-2.2626 2.2008-4.8099-2.3315-6.1763-10.989 2.51-22.902 16.699-22.902 15.352 0 23.41 15.16 13.745 25.858-4.686 5.1869-3.5154 7.0138 3.0587 4.7737 8.4668-2.8849 6.2609-5.1676 29.097 30.109 6.4772 10.006 6.4687 9.7768 0.5846 15.758-6.34 6.4446-26.25 14.283-26.25 10.335zm8.3971-23.364c8.3781-4.53 8.3781-4.53 5.4162-9.9986s-2.9619-5.4686-7.6376-2.8116c-7.6747 4.3613-11.65 6.6677-12.095 7.0167-0.66882 0.52484 4.1719 10.323 5.1 10.323 0.46121 0 4.6087-2.0385 9.2166-4.53zm-8.539-2.1411c-1.3844-1.6681-1.0776-1.9709 5.5276-5.4572 3.0627-1.6165 4.0547-1.7773 4.684-0.75907 1.6916 2.7371-8.1347 8.7188-10.212 6.2162zm0.75217-11.918c8.4181-4.5887 8.4181-4.5887 5.745-9.5-3.2308-5.9361-2.7556-5.9109-12.48-0.66131-8.9522 4.8326-8.74 4.4178-5.2799 10.322 3.1358 5.3509 1.8733 5.3677 12.015-0.16062zm-8.483-2.1484c-1.0368-1.8526 7.9355-7.9602 9.9054-6.7427 2.0373 1.2591 0.75931 3.0787-4.0093 5.7085-4.5134 2.4891-5.0311 2.5799-5.8961 1.0343zm-52.386 11.171c-8.7591-4.4647-8.7591-4.4647-6.2332-9.4494 1.3893-2.7416 2.9566-4.9847 3.483-4.9847 1.2534 0 17.009 7.948 17.009 8.5803 0 0.65011-4.9694 10.434-5.2668 10.369-0.12824-0.02784-4.1747-2.0597-8.9922-4.5153zm7.5581-14.199c-25.301-12.814-24.622-11.007-11.315-30.126 9.6562-13.873 10.723-14.526 18.103-11.069 5.4371 2.5466 5.3533 2.398 3.824 6.7849-1.0891 3.1241-1.0891 3.1241-4.8254 1.218s-3.7363-1.9061-6.4585 3.6442c-1.4972 3.0527-2.5883 5.6613-2.4246 5.797 0.16365 0.13565 5.7728 2.9881 12.465 6.3389 12.167 6.0922 12.167 6.0922 14.785 1.0862s2.6176-5.0061 0.58284-7.5929c-4.3265-5.5002-2.0178-9.3694 3.815-6.3937 7.906 4.0333 8.0205 4.9732 2.5946 21.297-7.4284 22.348-5.7679 21.868-31.145 9.0151z" fill-opacity=".12354"/></g></svg>
