<svg version="1.1" viewBox="0 0 556.5 391.87" xmlns="http://www.w3.org/2000/svg"><g transform="translate(-29 -128.1)"><path d="m306.8 518.07c-10.011-3.2009-20.52-10.746-18.2-13.067 0.57194-0.57194 13.087-1.0804 30.437-1.2368 29.465-0.26545 29.465-0.26545 18.965-6.1717-18.028-10.141-16.006-5.274-15.963-38.412 0.0365-28.682 0.0365-28.682 4.5104-31.517 8.2671-5.2389 7.7036-6.1476-3.8983-6.2856-54.09-0.64357-70.166-39.758-36.734-89.379 8.4865-12.596 6.5064-11.526 17.841-9.6381 22.194 3.6975 50.245 0.47271 50.245-5.7764 0-2.5452-8.0649-4.7911-19.163-5.3365-14.505-0.71284-13.23 1.5185-13.976-24.462-0.36708-12.785-1.1614-23.992-1.8632-26.287-3.7849-12.376-12.691-22.365-22.997-25.795-5.2816-1.7574-4.4836 5.7439-6.2984-59.205-1.2016-43-1.2016-43-15.452-43.277-14.25-0.27745-14.25-0.27745-14.252 19.5-6e-3 67.178-0.999 81.184-5.9101 83.357-9.4663 4.1873-17.264 15.468-21.124 30.561-1.8283 7.1485-1.9614 13.574-2.61 125.95l-0.68339 118.41-44.085-9.7e-4c-101.95-0.00225-156.59-1.1264-156.59-3.222 0-1.8527 2.2249-1.8793 98.5-1.1783l98.5 0.71715 0.10749-67.908c0.21297-134.54 1.0429-169.66 4.2252-178.8 4.6917-13.475 11.982-23.179 20.787-27.671 3.8803-1.9796 3.8803-1.9796 4.0219-18.709 0.75584-89.329-0.28239-84.704 19.084-85.003 17.725-0.27298 17.725-0.27298 18.188 2 0.25437 1.2501 0.72095 15.098 1.0368 30.773 1.3221 65.603 1.5415 69.052 4.4599 70.112 19.123 6.9473 26.887 23.044 27.141 56.271 0.16076 21.032-0.43897 19.614 8.3068 19.632 24.489 0.0507 34 12.445 14.255 18.577-7.7473 2.4063-30.856 2.9761-42.58 1.05-5.2073-0.85547-9.7092-1.2374-10.004-0.84876-28.924 38.106-30.199 70.938-3.2837 84.577 15.084 7.6438 42.355 10.096 45.107 4.0554 4.5474-9.9804 6.5176-29.685 5.0686-50.694-1.3206-19.147-1.2494-19.389 8.3352-28.262 9.4424-8.7422 11.74-7.6934 20.606 9.4073 18.568 35.814 9.6927 63.678-23.362 73.342-18.259 5.3384-21.575 11.901-21.266 42.097 0.26639 26.099 0.26639 26.099 16.266 35.139s16 9.04 129.5 9.5423c99.999 0.44254 113.5 0.68072 113.5 2.0023 0 1.3241-13.254 1.5083-113 1.5705-113 0.0705-113 0.0705-120.62 3.7581-15.378 7.4402-32.819 9.6612-45.08 5.7406zm33.912-5.4526c12.829-4.1853 11.593-4.5013-17.935-4.5831-26.347-0.073-27.19-0.0153-24.775 1.6923 9.5834 6.7767 27.153 7.9659 42.71 2.8908zm13.272-100.93c23.776-9.7378 28.989-34.947 13.392-64.762-7.0706-13.516-8.3996-14.224-14.873-7.9223-7.9558 7.7458-7.7333 6.9041-6.548 24.768 1.3936 21.002 0.3062 32.935-4.5591 50.033-0.81282 2.8565 1.3195 2.4978 12.587-2.1172z" fill-opacity=".12155"/></g></svg>
