<svg version="1.1" viewBox="0 0 190.35 190.44" xmlns="http://www.w3.org/2000/svg"><g transform="translate(-16.565 -16.522)"><path d="m18.739 204.64c-2.0741-2.2078-2.1743-3.1857-2.1743-21.213v-18.899l31.153-31.211c31.153-31.211 31.153-31.211 30-36.953-13.426-66.852 70.466-108.44 113.77-56.403 40.859 49.097-5.5256 120.85-68.164 105.44-2.4222-0.59585-3.6158 0.17704-10.332 6.6907-7.5936 7.3644-7.5936 7.3644-16.511 7.7139-8.9177 0.3495-8.9177 0.3495-8.9177 7.6008 0 13.626-2.8979 16.55-16.401 16.55-7.5989 0-7.5989 0-7.6227 6.25-0.06283 16.46-0.4786 16.75-23.993 16.75-18.186 0-18.687-0.0558-20.809-2.3144zm38.791-4.6198c0.56935-1.0638 1.0352-5.7337 1.0352-10.378 0-10.718 0.38432-11.076 12.402-11.538 11.658-0.44846 11.598-0.38829 11.598-11.572 0-11.556 0.0218-11.578 11.757-11.578 9.3574 0 9.3574 0 16.405-7.4659 8.2698-8.7608 9.098-9.1283 15.973-7.0867 25.146 7.4675 56.356-6.6941 68.581-31.119 23.302-46.556-19.286-99.291-69.025-85.472-32.917 9.1455-49.118 37.449-43.278 75.606 0.9127 5.9629 0.9127 5.9629-30.25 36.504l-31.163 30.542v17.079c0 9.3934 0.3 17.379 0.66667 17.746 1.8575 1.8576 34.248 0.69437 35.298-1.2676zm91.776-116.52c-6.7883-2.3793-9.743-6.5511-9.7368-13.747 0.0126-14.464 19.909-19.537 26.516-6.761 5.9392 11.485-4.8611 24.686-16.779 20.508zm10.805-7.0014c7.0316-7.0316-0.82057-18.964-9.965-15.144-9.424 3.9376-6.7696 17.598 3.4195 17.598 3.0101 0 4.7394-0.64848 6.5454-2.4545z" fill-opacity=".11655"/></g></svg>
