<svg version="1.1" viewBox="0 0 168.37 191.89" xmlns="http://www.w3.org/2000/svg"><g transform="translate(-24.992 -13.989)"><path d="m32.236 203.78c-18.462-9.7218 0.9045-55.116 29.516-69.182 20.624-10.14 75.553-9.701 96.49 0.77045 27.618 13.813 46.184 59.818 27.683 68.597-5.6327 2.6729-148.59 2.5005-153.69-0.18533zm152.7-6.3395c10.279-9.6568-8.1395-46.46-28.357-56.661-20.98-10.586-74.431-10.569-94.643 0.0305-20.321 10.657-38.232 46.144-28.512 56.49 3.3336 3.5484 147.74 3.682 151.51 0.14014zm-84.186-88.865c-52.792-10.822-51.469-86.166 1.6517-94.041 37.74-5.5943 66.081 32.993 49.845 67.867-8.7762 18.852-31.32 30.31-51.497 26.173zm20.568-6.5492c24.33-7.1144 36.825-34.895 26.068-57.957-19.101-40.949-79.636-27.612-79.636 17.545 0 28.604 26.244 48.402 53.568 40.412z" fill-opacity=".11655"/></g></svg>
